<svg width="26" height="26" viewBox="0 0 26 26" fill="none" xmlns="http://www.w3.org/2000/svg">
<rect x="1" y="1" width="24" height="24" rx="12" fill="#EFF8FF"/>
<path d="M12.9994 10.9996V12.9996M12.9994 14.9996H13.0044M12.1444 8.42961L7.9094 15.4996C7.82208 15.6508 7.77588 15.8223 7.77539 15.9969C7.77491 16.1715 7.82015 16.3432 7.90661 16.4949C7.99308 16.6466 8.11776 16.773 8.26825 16.8615C8.41875 16.9501 8.5898 16.9977 8.7644 16.9996H17.2344C17.409 16.9977 17.5801 16.9501 17.7305 16.8615C17.881 16.773 18.0057 16.6466 18.0922 16.4949C18.1787 16.3432 18.2239 16.1715 18.2234 15.9969C18.2229 15.8223 18.1767 15.6508 18.0894 15.4996L13.8544 8.42961C13.7653 8.28267 13.6398 8.16117 13.49 8.07686C13.3402 7.99254 13.1713 7.94824 12.9994 7.94824C12.8275 7.94824 12.6586 7.99254 12.5088 8.07686C12.359 8.16117 12.2335 8.28267 12.1444 8.42961Z" stroke="#004999" stroke-linecap="round" stroke-linejoin="round"/>
<rect x="1" y="1" width="24" height="24" rx="12" stroke="#004999" stroke-width="2"/>
</svg>
